<svg width="512" height="512" viewBox="0 0 512 512" fill="none" xmlns="http://www.w3.org/2000/svg">
<path d="M512 256C512 397.385 397.385 512 256 512C114.615 512 0 397.385 0 256C0 114.615 114.615 0 256 0C397.385 0 512 114.615 512 256Z" fill="white"/>
<path d="M123.25 309.25C123.25 323.75 129.417 331 141.75 331C155.25 331 164.333 326.333 169 317C170.667 313.667 171.5 309.417 171.5 304.25C171.5 298.917 170.25 294 167.75 289.5C163.583 282.333 156.417 274.417 146.25 265.75C129.417 251.417 121 236.583 121 221.25C121 205.75 125.833 193.833 135.5 185.5C145.167 177.167 156.25 173 168.75 173C181.25 173 191.167 176.167 198.5 182.5C205.833 188.833 209.5 198.333 209.5 211C209.5 219.333 206.667 226.583 201 232.75C195.5 238.917 188.167 242.75 179 244.25C183.167 247.75 187.333 251.333 191.5 255C195.5 258.667 199.167 262.667 202.5 267C209.833 276.833 213.5 288.583 213.5 302.25C213.5 311.75 211.25 320.333 206.75 328C202.417 335.667 196.667 342.167 189.5 347.5C182.5 352.667 174.583 356.667 165.75 359.5C156.917 362.333 148.667 363.75 141 363.75C124.667 363.75 112 360 103 352.5C92.5 344 87.25 331.75 87.25 315.75C87.25 305.25 90.6667 295.083 97.5 285.25C104.333 275.417 111.583 270.5 119.25 270.5C125.25 270.5 128.25 272.333 128.25 276C128.25 281.333 127.417 286.667 125.75 292C124.083 297.167 123.25 302.917 123.25 309.25ZM171.75 238.25C181.25 228.75 186 218.833 186 208.5C186 205.333 184.333 202.667 181 200.5C177.333 198.5 173.5 197.5 169.5 197.5C160.5 197.5 154 200.417 150 206.25C152 213.417 154.917 219.5 158.75 224.5C162.75 229.5 167.083 234.083 171.75 238.25ZM227.328 318.75C227.328 316.75 228.661 315.75 231.328 315.75C233.995 315.75 242.245 317.583 256.078 321.25C259.245 293.917 268.161 264.25 282.828 232.25C287.995 220.583 294.161 214.75 301.328 214.75C302.661 214.75 303.911 216.167 305.078 219C306.411 221.833 307.078 225.333 307.078 229.5C307.078 234.5 304.411 248.25 299.078 270.75C293.911 293.25 290.495 312.833 288.828 329.5C299.828 332 309.495 333.25 317.828 333.25C326.328 333.25 334.078 331.083 341.078 326.75C348.078 322.25 354.078 316.5 359.078 309.5C369.411 294.667 374.578 276.833 374.578 256C374.411 217.5 359.078 198.25 328.578 198.25C317.745 198.417 298.578 203.25 271.078 212.75C265.745 214.583 261.078 215.5 257.078 215.5C253.078 215.5 251.078 214.333 251.078 212C251.078 208.833 253.411 205.083 258.078 200.75C262.745 196.417 268.745 192.25 276.078 188.25C294.078 178.583 311.578 173.75 328.578 173.75C351.911 173.75 371.078 180 386.078 192.5C403.745 207.333 412.495 229.833 412.328 260C412.328 272.833 410.328 285.5 406.328 298C402.328 310.5 396.245 321.667 388.078 331.5C379.911 341.167 369.578 349 357.078 355C344.578 361 329.828 364 312.828 364C305.995 364 297.328 362.5 286.828 359.5C285.661 362.667 282.745 364.25 278.078 364.25C269.411 364.25 263.495 362.833 260.328 360C257.328 357 255.578 352.167 255.078 345.5C247.078 341 240.411 336.333 235.078 331.5C229.911 326.667 227.328 322.417 227.328 318.75Z" fill="#0074D9"/>
</svg>
